<svg width="1264" height="1264" viewBox="0 0 1264 1264" fill="none" xmlns="http://www.w3.org/2000/svg">
<rect width="1263.14" height="1263.14" rx="189" fill="white"/>
<path d="M737.7 200.942L510.5 1045.03H366.95L594.151 200.942H737.7ZM838.959 950.016C812.337 950.016 789.502 940.721 770.454 922.132C751.636 903.313 742.341 880.479 742.571 853.628C742.341 827.465 751.636 805.089 770.454 786.5C789.502 767.911 812.337 758.616 838.959 758.616C864.203 758.616 886.464 767.911 905.742 786.5C925.249 805.089 935.117 827.465 935.347 853.628C935.117 871.528 930.413 887.822 921.233 902.51C912.283 916.968 900.578 928.558 886.12 937.279C871.662 945.77 855.941 950.016 838.959 950.016Z" fill="black" fill-opacity="0.85"/>
</svg>
